<?xml version="1.0" encoding="UTF-8" standalone="no"?>
<!-- Created with Inkscape (http://www.inkscape.org/) -->

<svg
   xmlns:dc="http://purl.org/dc/elements/1.1/"
   xmlns:cc="http://creativecommons.org/ns#"
   xmlns:rdf="http://www.w3.org/1999/02/22-rdf-syntax-ns#"
   xmlns:svg="http://www.w3.org/2000/svg"
   xmlns="http://www.w3.org/2000/svg"
   xmlns:sodipodi="http://sodipodi.sourceforge.net/DTD/sodipodi-0.dtd"
   xmlns:inkscape="http://www.inkscape.org/namespaces/inkscape"
   width="575.49023"
   height="175.03857"
   id="svg2991"
   version="1.1"
   inkscape:version="0.48.0 r9654"
   inkscape:export-filename="C:\Users\fuglede\Desktop\lickorishtwist.png"
   inkscape:export-xdpi="300"
   inkscape:export-ydpi="300"
   sodipodi:docname="lickorishtwist.svg">
  <defs
     id="defs2993" />
  <sodipodi:namedview
     id="base"
     pagecolor="#ffffff"
     bordercolor="#666666"
     borderopacity="1.0"
     inkscape:pageopacity="0.0"
     inkscape:pageshadow="2"
     inkscape:zoom="1.535944"
     inkscape:cx="298.15658"
     inkscape:cy="85.911187"
     inkscape:document-units="px"
     inkscape:current-layer="layer1"
     showgrid="false"
     inkscape:window-width="1600"
     inkscape:window-height="878"
     inkscape:window-x="-8"
     inkscape:window-y="-8"
     inkscape:window-maximized="1"
     fit-margin-top="0"
     fit-margin-left="0"
     fit-margin-right="0"
     fit-margin-bottom="0" />
  <metadata
     id="metadata2996">
    <rdf:RDF>
      <cc:Work
         rdf:about="">
        <dc:format>image/svg+xml</dc:format>
        <dc:type
           rdf:resource="http://purl.org/dc/dcmitype/StillImage" />
        <dc:title />
      </cc:Work>
    </rdf:RDF>
  </metadata>
  <g
     inkscape:label="Layer 1"
     inkscape:groupmode="layer"
     id="layer1"
     transform="translate(-89.198721,-41.218986)">
    <path
       style="color:#000000;fill:none;stroke:#000000;stroke-width:1.48806441;stroke-linecap:butt;stroke-linejoin:round;stroke-miterlimit:4;stroke-opacity:1;stroke-dasharray:none;stroke-dashoffset:0;marker:none;visibility:visible;display:inline;overflow:visible;enable-background:accumulate"
       d="m 662.7551,135.83352 c -8.09625,36.51076 -36.09469,68.13981 -80.12417,78.53269 -37.07138,8.75047 -69.26783,-39.38907 -107.35716,-39.14281 -37.08782,0.23978 -66.94454,39.30396 -104.0328,39.46204 -32.8057,0.13982 -59.53004,-32.92782 -92.31438,-34.11971 -39.65126,-1.44153 -78.98682,38.55092 -114.35213,33.04993 -25.60262,-3.98243 -72.93234,-35.30012 -74.5619,-75.54677 -1.83471,-45.313671 32.66881,-99.189884 83.15876,-95.103926 32.05686,2.594242 66.46353,38.041782 102.98332,37.430686 34.35415,-0.574857 61.28518,-38.509004 95.64405,-38.432516 36.6698,0.08163 65.2459,40.187101 101.89329,41.471502 41.76591,1.463793 50.28293,-46.097674 119.14864,-39.01805 46.00592,4.729562 77.75267,56.069914 69.91448,91.416934 z"
       id="path2999"
       inkscape:connector-curvature="0"
       sodipodi:nodetypes="ssaaasssaasss" />
    <path
       style="fill:none;stroke:#000000;stroke-width:2;stroke-linecap:butt;stroke-linejoin:miter;stroke-miterlimit:4;stroke-opacity:1;stroke-dasharray:none"
       d="m 131.88707,126.91734 c 31.63649,24.14456 65.85082,23.54186 102.45464,0"
       id="path3776"
       inkscape:connector-curvature="0"
       sodipodi:nodetypes="cc" />
    <path
       style="fill:none;stroke:#000000;stroke-width:2;stroke-linecap:butt;stroke-linejoin:miter;stroke-miterlimit:4;stroke-opacity:1;stroke-dasharray:none"
       d="m 139.71088,132.13321 c 29.67201,-27.59803 58.24788,-32.907699 84.94421,0"
       id="path3778"
       inkscape:connector-curvature="0"
       sodipodi:nodetypes="cc" />
    <path
       style="fill:none;stroke:#000000;stroke-width:2;stroke-linecap:butt;stroke-linejoin:miter;stroke-miterlimit:4;stroke-opacity:1;stroke-dasharray:none"
       d="m 520.4422,125.29816 c 31.63649,24.14456 65.85082,23.54186 102.45464,0"
       id="path3776-8"
       inkscape:connector-curvature="0"
       sodipodi:nodetypes="cc" />
    <path
       style="fill:none;stroke:#000000;stroke-width:2;stroke-linecap:butt;stroke-linejoin:miter;stroke-miterlimit:4;stroke-opacity:1;stroke-dasharray:none"
       d="m 528.26601,130.51403 c 29.67202,-27.59803 58.24789,-32.907694 84.94421,0"
       id="path3778-8"
       inkscape:connector-curvature="0"
       sodipodi:nodetypes="cc" />
    <path
       style="fill:none;stroke:#000000;stroke-width:2;stroke-linecap:butt;stroke-linejoin:miter;stroke-miterlimit:4;stroke-opacity:1;stroke-dasharray:none"
       d="m 323.57038,129.71493 c 31.63649,24.14456 65.85082,23.54186 102.45464,0"
       id="path3776-1"
       inkscape:connector-curvature="0"
       sodipodi:nodetypes="cc" />
    <path
       style="fill:none;stroke:#000000;stroke-width:2;stroke-linecap:butt;stroke-linejoin:miter;stroke-miterlimit:4;stroke-opacity:1;stroke-dasharray:none"
       d="m 331.39419,134.9308 c 29.67201,-27.59803 58.24788,-32.9077 84.94421,0"
       id="path3778-7"
       inkscape:connector-curvature="0"
       sodipodi:nodetypes="cc" />
    <path
       sodipodi:type="arc"
       style="color:#000000;fill:none;stroke:#0000ff;stroke-width:0.86000001;stroke-linecap:butt;stroke-linejoin:round;stroke-miterlimit:4;stroke-opacity:1;stroke-dasharray:none;stroke-dashoffset:0;marker:none;visibility:visible;display:inline;overflow:visible;enable-background:accumulate"
       id="path3824"
       sodipodi:cx="189.76898"
       sodipodi:cy="130.02467"
       sodipodi:rx="69.883179"
       sodipodi:ry="40.363564"
       d="m 259.65216,130.02467 c 0,22.29218 -31.28776,40.36357 -69.88318,40.36357 -38.59541,0 -69.88318,-18.07139 -69.88318,-40.36357 0,-22.29218 31.28777,-40.36356 69.88318,-40.36356 38.59542,0 69.88318,18.07138 69.88318,40.36356 z"
       transform="matrix(1,0,0,1.2039324,-7.2292947,-27.751429)" />
    <path
       sodipodi:type="arc"
       style="color:#000000;fill:none;stroke:#0000ff;stroke-width:0.86000001;stroke-linecap:butt;stroke-linejoin:round;stroke-miterlimit:4;stroke-opacity:1;stroke-dasharray:none;stroke-dashoffset:0;marker:none;visibility:visible;display:inline;overflow:visible;enable-background:accumulate"
       id="path3824-0"
       sodipodi:cx="189.76898"
       sodipodi:cy="130.02467"
       sodipodi:rx="69.883179"
       sodipodi:ry="40.363564"
       d="m 259.65216,130.02467 c 0,22.29218 -31.28776,40.36357 -69.88318,40.36357 -38.59541,0 -69.88318,-18.07139 -69.88318,-40.36357 0,-22.29218 31.28777,-40.36356 69.88318,-40.36356 38.59542,0 69.88318,18.07138 69.88318,40.36356 z"
       transform="matrix(1,0,0,1.2039324,381.3453,-28.323571)" />
    <path
       sodipodi:type="arc"
       style="color:#000000;fill:none;stroke:#0000ff;stroke-width:0.86000001;stroke-linecap:butt;stroke-linejoin:round;stroke-miterlimit:4;stroke-opacity:1;stroke-dasharray:none;stroke-dashoffset:0;marker:none;visibility:visible;display:inline;overflow:visible;enable-background:accumulate"
       id="path3824-9"
       sodipodi:cx="189.76898"
       sodipodi:cy="130.02467"
       sodipodi:rx="69.883179"
       sodipodi:ry="40.363564"
       d="m 259.65216,130.02467 c 0,22.29218 -31.28776,40.36357 -69.88318,40.36357 -38.59541,0 -69.88318,-18.07139 -69.88318,-40.36357 0,-22.29218 31.28777,-40.36356 69.88318,-40.36356 38.59542,0 69.88318,18.07138 69.88318,40.36356 z"
       transform="matrix(1,0,0,1.2039324,185.5519,-26.516248)" />
    <path
       style="fill:none;stroke:#00ff00;stroke-width:1px;stroke-linecap:butt;stroke-linejoin:miter;stroke-opacity:1"
       d="m 179.94819,144.87928 c -23.35265,25.21919 -21.36334,47.23372 -4.59751,68.61091"
       id="path3880"
       inkscape:connector-curvature="0"
       sodipodi:nodetypes="cc" />
    <path
       style="fill:none;stroke:#00ff00;stroke-width:1;stroke-linecap:butt;stroke-linejoin:miter;stroke-miterlimit:4;stroke-opacity:1;stroke-dasharray:1, 1;stroke-dashoffset:0"
       d="m 174.77644,213.65269 c 23.35265,-25.21919 21.36334,-47.23372 4.59751,-68.61091"
       id="path3880-7"
       inkscape:connector-curvature="0"
       sodipodi:nodetypes="cc" />
    <path
       style="fill:none;stroke:#00ff00;stroke-width:1px;stroke-linecap:butt;stroke-linejoin:miter;stroke-opacity:1"
       d="m 375.51966,146.98415 c -23.35265,25.21919 -21.36334,47.23372 -4.59751,68.61091"
       id="path3880-0"
       inkscape:connector-curvature="0"
       sodipodi:nodetypes="cc" />
    <path
       style="fill:none;stroke:#00ff00;stroke-width:1;stroke-linecap:butt;stroke-linejoin:miter;stroke-miterlimit:4;stroke-opacity:1;stroke-dasharray:1, 1;stroke-dashoffset:0"
       d="m 370.34791,215.75756 c 23.35265,-25.21919 21.36334,-47.23372 4.59751,-68.61091"
       id="path3880-7-6"
       inkscape:connector-curvature="0"
       sodipodi:nodetypes="cc" />
    <path
       style="fill:none;stroke:#00ff00;stroke-width:1px;stroke-linecap:butt;stroke-linejoin:miter;stroke-opacity:1"
       d="m 574.74267,143.40919 c -23.35265,25.21919 -17.46338,49.83369 -0.69755,71.21088"
       id="path3880-1"
       inkscape:connector-curvature="0"
       sodipodi:nodetypes="cc" />
    <path
       style="fill:none;stroke:#00ff00;stroke-width:1;stroke-linecap:butt;stroke-linejoin:miter;stroke-miterlimit:4;stroke-opacity:1;stroke-dasharray:1, 1;stroke-dashoffset:0"
       d="m 573.79588,214.78257 c 23.35265,-25.21919 17.13838,-49.83369 0.37255,-71.21088"
       id="path3880-7-8"
       inkscape:connector-curvature="0"
       sodipodi:nodetypes="cc" />
    <path
       style="fill:none;stroke:#ff0000;stroke-width:1.32567823px;stroke-linecap:butt;stroke-linejoin:miter;stroke-opacity:1"
       d="m 224.24776,130.32707 c 33.85547,-27.40652 81.16547,-28.08592 109.84891,1.31929"
       id="path3937"
       inkscape:connector-curvature="0"
       sodipodi:nodetypes="cc" />
    <path
       style="fill:none;stroke:#ff0000;stroke-width:1;stroke-linecap:butt;stroke-linejoin:miter;stroke-miterlimit:4;stroke-opacity:1;stroke-dasharray:1, 1;stroke-dashoffset:0"
       d="m 223.27277,131.32136 c 31.1278,24.28179 80.01337,17.12334 109.19892,2.92497"
       id="path3939"
       inkscape:connector-curvature="0" />
    <path
       style="fill:none;stroke:#ff0000;stroke-width:1.32567823px;stroke-linecap:butt;stroke-linejoin:miter;stroke-opacity:1"
       d="m 414.77694,133.26049 c 33.85547,-27.40652 85.75599,-33.434923 114.43943,-4.02971"
       id="path3937-3"
       inkscape:connector-curvature="0"
       sodipodi:nodetypes="cc" />
    <path
       style="fill:none;stroke:#ff0000;stroke-width:1;stroke-linecap:butt;stroke-linejoin:miter;stroke-miterlimit:4;stroke-opacity:1;stroke-dasharray:1, 1;stroke-dashoffset:0"
       d="m 413.80195,134.25478 c 31.1278,24.28179 87.726,10.78409 115.16395,-4.91222"
       id="path3939-6"
       inkscape:connector-curvature="0"
       sodipodi:nodetypes="cc" />
  </g>
</svg>
